<svg xmlns="http://www.w3.org/2000/svg" xmlns:xlink="http://www.w3.org/1999/xlink" version="1.1" class="marks" width="646" height="354" viewBox="0 0 646 354"><rect width="646" height="354" fill="white"/><g fill="none" stroke-miterlimit="10" transform="translate(41,67)"><g class="mark-group role-frame root" role="graphics-object" aria-roledescription="group mark container"><g transform="translate(0,0)"><path class="background" aria-hidden="true" d="M0.5,0.5h600v250h-600Z" stroke="#ddd"/><g><g class="mark-group role-axis" role="graphics-symbol" aria-roledescription="axis" aria-label="X-axis for a time scale with values from Tuesday, 18 January 2022, 12:00:00 AM to Saturday, 16 April 2022, 12:00:00 AM"><g transform="translate(0.5,250.5)"><path class="background" aria-hidden="true" d="M0,0h0v0h0Z" pointer-events="none"/><g><g class="mark-rule role-axis-grid" pointer-events="none"><line transform="translate(34,0)" x2="0" y2="-250" stroke="#ddd" stroke-width="1" opacity="1"/><line transform="translate(82,0)" x2="0" y2="-250" stroke="#ddd" stroke-width="1" opacity="1"/><line transform="translate(130,0)" x2="0" y2="-250" stroke="#ddd" stroke-width="1" opacity="1"/><line transform="translate(177,0)" x2="0" y2="-250" stroke="#ddd" stroke-width="1" opacity="1"/><line transform="translate(225,0)" x2="0" y2="-250" stroke="#ddd" stroke-width="1" opacity="1"/><line transform="translate(273,0)" x2="0" y2="-250" stroke="#ddd" stroke-width="1" opacity="1"/><line transform="translate(321,0)" x2="0" y2="-250" stroke="#ddd" stroke-width="1" opacity="1"/><line transform="translate(368,0)" x2="0" y2="-250" stroke="#ddd" stroke-width="1" opacity="1"/><line transform="translate(416,0)" x2="0" y2="-250" stroke="#ddd" stroke-width="1" opacity="1"/><line transform="translate(464,0)" x2="0" y2="-250" stroke="#ddd" stroke-width="1" opacity="1"/><line transform="translate(511,0)" x2="0" y2="-250" stroke="#ddd" stroke-width="1" opacity="1"/><line transform="translate(559,0)" x2="0" y2="-250" stroke="#ddd" stroke-width="1" opacity="1"/></g></g><path class="foreground" aria-hidden="true" d="" pointer-events="none" display="none"/></g></g><g class="mark-group role-axis" role="graphics-symbol" aria-roledescription="axis" aria-label="X-axis titled 'Time Frame' for a time scale with values from Tuesday, 18 January 2022, 12:00:00 AM to Saturday, 16 April 2022, 12:00:00 AM"><g transform="translate(0.5,250.5)"><path class="background" aria-hidden="true" d="M0,0h0v0h0Z" pointer-events="none"/><g><g class="mark-rule role-axis-tick" pointer-events="none"><line transform="translate(34,0)" x2="0" y2="5" stroke="#888" stroke-width="1" opacity="1"/><line transform="translate(82,0)" x2="0" y2="5" stroke="#888" stroke-width="1" opacity="1"/><line transform="translate(130,0)" x2="0" y2="5" stroke="#888" stroke-width="1" opacity="1"/><line transform="translate(177,0)" x2="0" y2="5" stroke="#888" stroke-width="1" opacity="1"/><line transform="translate(225,0)" x2="0" y2="5" stroke="#888" stroke-width="1" opacity="1"/><line transform="translate(273,0)" x2="0" y2="5" stroke="#888" stroke-width="1" opacity="1"/><line transform="translate(321,0)" x2="0" y2="5" stroke="#888" stroke-width="1" opacity="1"/><line transform="translate(368,0)" x2="0" y2="5" stroke="#888" stroke-width="1" opacity="1"/><line transform="translate(416,0)" x2="0" y2="5" stroke="#888" stroke-width="1" opacity="1"/><line transform="translate(464,0)" x2="0" y2="5" stroke="#888" stroke-width="1" opacity="1"/><line transform="translate(511,0)" x2="0" y2="5" stroke="#888" stroke-width="1" opacity="1"/><line transform="translate(559,0)" x2="0" y2="5" stroke="#888" stroke-width="1" opacity="1"/></g><g class="mark-text role-axis-label" pointer-events="none"><text text-anchor="middle" transform="translate(34.107058266224534,15)" font-family="sans-serif" font-size="10px" fill="#000" opacity="1">Jan:23</text><text text-anchor="middle" transform="translate(81.85693983893889,15)" font-family="sans-serif" font-size="10px" fill="#000" opacity="1">Jan:30</text><text text-anchor="middle" transform="translate(129.60682141165324,15)" font-family="sans-serif" font-size="10px" fill="#000" opacity="1">Feb:06</text><text text-anchor="middle" transform="translate(177.35670298436762,15)" font-family="sans-serif" font-size="10px" fill="#000" opacity="1">Feb:13</text><text text-anchor="middle" transform="translate(225.10658455708196,15)" font-family="sans-serif" font-size="10px" fill="#000" opacity="1">Feb:20</text><text text-anchor="middle" transform="translate(272.8564661297963,15)" font-family="sans-serif" font-size="10px" fill="#000" opacity="1">Feb:27</text><text text-anchor="middle" transform="translate(320.6063477025107,15)" font-family="sans-serif" font-size="10px" fill="#000" opacity="1">Mar:06</text><text text-anchor="middle" transform="translate(368.356229275225,15)" font-family="sans-serif" font-size="10px" fill="#000" opacity="1">Mar:13</text><text text-anchor="middle" transform="translate(415.8218853623875,15)" font-family="sans-serif" font-size="10px" fill="#000" opacity="1">Mar:20</text><text text-anchor="middle" transform="translate(463.5717669351019,15)" font-family="sans-serif" font-size="10px" fill="#000" opacity="1">Mar:27</text><text text-anchor="middle" transform="translate(511.32164850781623,15)" font-family="sans-serif" font-size="10px" fill="#000" opacity="1">Apr:03</text><text text-anchor="middle" transform="translate(559.0715300805305,15)" font-family="sans-serif" font-size="10px" fill="#000" opacity="1">Apr:10</text></g><g class="mark-rule role-axis-domain" pointer-events="none"><line transform="translate(0,0)" x2="600" y2="0" stroke="#888" stroke-width="1" opacity="1"/></g><g class="mark-text role-axis-title" pointer-events="none"><text text-anchor="middle" transform="translate(300,30)" font-family="sans-serif" font-size="11px" font-weight="bold" fill="#000" opacity="1">Time Frame</text></g></g><path class="foreground" aria-hidden="true" d="" pointer-events="none" display="none"/></g></g><g class="mark-group role-axis" role="graphics-symbol" aria-roledescription="axis" aria-label="Y-axis titled 'Tags' for a discrete scale with 15 values: 1.1, 1.2, 1.3, 2.1, 2.2, ending with 5.1"><g transform="translate(0.5,0.5)"><path class="background" aria-hidden="true" d="M0,0h0v0h0Z" pointer-events="none"/><g><g class="mark-rule role-axis-tick" pointer-events="none"><line transform="translate(0,8)" x2="-5" y2="0" stroke="#888" stroke-width="1" opacity="1"/><line transform="translate(0,24)" x2="-5" y2="0" stroke="#888" stroke-width="1" opacity="1"/><line transform="translate(0,41)" x2="-5" y2="0" stroke="#888" stroke-width="1" opacity="1"/><line transform="translate(0,58)" x2="-5" y2="0" stroke="#888" stroke-width="1" opacity="1"/><line transform="translate(0,75)" x2="-5" y2="0" stroke="#888" stroke-width="1" opacity="1"/><line transform="translate(0,91)" x2="-5" y2="0" stroke="#888" stroke-width="1" opacity="1"/><line transform="translate(0,108)" x2="-5" y2="0" stroke="#888" stroke-width="1" opacity="1"/><line transform="translate(0,125)" x2="-5" y2="0" stroke="#888" stroke-width="1" opacity="1"/><line transform="translate(0,141)" x2="-5" y2="0" stroke="#888" stroke-width="1" opacity="1"/><line transform="translate(0,158)" x2="-5" y2="0" stroke="#888" stroke-width="1" opacity="1"/><line transform="translate(0,175)" x2="-5" y2="0" stroke="#888" stroke-width="1" opacity="1"/><line transform="translate(0,191)" x2="-5" y2="0" stroke="#888" stroke-width="1" opacity="1"/><line transform="translate(0,208)" x2="-5" y2="0" stroke="#888" stroke-width="1" opacity="1"/><line transform="translate(0,225)" x2="-5" y2="0" stroke="#888" stroke-width="1" opacity="1"/><line transform="translate(0,241)" x2="-5" y2="0" stroke="#888" stroke-width="1" opacity="1"/></g><g class="mark-text role-axis-label" pointer-events="none"><text text-anchor="end" transform="translate(-7,10.833333333333329)" font-family="sans-serif" font-size="10px" fill="#000" opacity="1">1.1</text><text text-anchor="end" transform="translate(-7,27.499999999999996)" font-family="sans-serif" font-size="10px" fill="#000" opacity="1">1.2</text><text text-anchor="end" transform="translate(-7,44.166666666666664)" font-family="sans-serif" font-size="10px" fill="#000" opacity="1">1.3</text><text text-anchor="end" transform="translate(-7,60.83333333333333)" font-family="sans-serif" font-size="10px" fill="#000" opacity="1">2.1</text><text text-anchor="end" transform="translate(-7,77.5)" font-family="sans-serif" font-size="10px" fill="#000" opacity="1">2.2</text><text text-anchor="end" transform="translate(-7,94.16666666666667)" font-family="sans-serif" font-size="10px" fill="#000" opacity="1">2.3</text><text text-anchor="end" transform="translate(-7,110.83333333333333)" font-family="sans-serif" font-size="10px" fill="#000" opacity="1">2.4</text><text text-anchor="end" transform="translate(-7,127.5)" font-family="sans-serif" font-size="10px" fill="#000" opacity="1">2.5</text><text text-anchor="end" transform="translate(-7,144.16666666666669)" font-family="sans-serif" font-size="10px" fill="#000" opacity="1">2.6</text><text text-anchor="end" transform="translate(-7,160.83333333333331)" font-family="sans-serif" font-size="10px" fill="#000" opacity="1">3.1</text><text text-anchor="end" transform="translate(-7,177.5)" font-family="sans-serif" font-size="10px" fill="#000" opacity="1">3.2</text><text text-anchor="end" transform="translate(-7,194.16666666666669)" font-family="sans-serif" font-size="10px" fill="#000" opacity="1">3.3</text><text text-anchor="end" transform="translate(-7,210.83333333333331)" font-family="sans-serif" font-size="10px" fill="#000" opacity="1">4.1</text><text text-anchor="end" transform="translate(-7,227.5)" font-family="sans-serif" font-size="10px" fill="#000" opacity="1">4.2</text><text text-anchor="end" transform="translate(-7,244.16666666666669)" font-family="sans-serif" font-size="10px" fill="#000" opacity="1">5.1</text></g><g class="mark-rule role-axis-domain" pointer-events="none"><line transform="translate(0,0)" x2="0" y2="250" stroke="#888" stroke-width="1" opacity="1"/></g><g class="mark-text role-axis-title" pointer-events="none"><text text-anchor="middle" transform="translate(-24.9013671875,125) rotate(-90) translate(0,-2)" font-family="sans-serif" font-size="11px" font-weight="bold" fill="#000" opacity="1">Tags</text></g></g><path class="foreground" aria-hidden="true" d="" pointer-events="none" display="none"/></g></g><g class="mark-rect role-mark marks" role="graphics-symbol" aria-roledescription="rect mark container"><path d="M0,0.8333333333333286h40.92846991946944v15.000000000000002h-40.92846991946944Z" fill="#54a24b"/><path d="M47.74988157271435,17.499999999999996h40.92846991946946v15.000000000000002h-40.92846991946946Z" fill="#54a24b"/><path d="M75.03552818569398,34.166666666666664h27.285646612979633v15.000000000000002h-27.285646612979633Z" fill="#54a24b"/><path d="M102.32117479867361,50.83333333333333h40.92846991946945v15.000000000000002h-40.92846991946945Z" fill="#f58518"/><path d="M136.42823306489814,67.5h34.107058266224556v15.000000000000002h-34.107058266224556Z" fill="#f58518"/><path d="M177.35670298436762,84.16666666666667h47.749881572714344v15.000000000000002h-47.749881572714344Z" fill="#f58518"/><path d="M218.28517290383706,100.83333333333333h34.10705826622453v15.000000000000002h-34.10705826622453Z" fill="#f58518"/><path d="M225.10658455708196,117.5h34.10705826622453v15.000000000000002h-34.10705826622453Z" fill="#f58518"/><path d="M231.92799621032685,134.16666666666669h34.107058266224556v15.000000000000002h-34.107058266224556Z" fill="#f58518"/><path d="M238.74940786357175,150.83333333333331h34.10705826622453v15.000000000000002h-34.10705826622453Z" fill="#72b7b2"/><path d="M266.0350544765514,167.5h47.749881572714344v15.000000000000002h-47.749881572714344Z" fill="#72b7b2"/><path d="M279.6778777830412,184.16666666666669h34.107058266224556v15.000000000000002h-34.107058266224556Z" fill="#72b7b2"/><path d="M306.9635243960209,200.83333333333331h47.749881572714344v15.000000000000002h-47.749881572714344Z" fill="#4c78a8"/><path d="M354.71340596873523,217.5h54.28706774040734v15.000000000000002h-54.28706774040734Z" fill="#4c78a8"/><path d="M422.6432970156324,234.16666666666669h177.3567029843676v15.000000000000002h-177.3567029843676Z" fill="#e45756"/></g><g class="mark-group role-legend" role="graphics-symbol" aria-roledescription="legend" aria-label="Symbol legend titled 'Category' for fill color with 5 values: Cost Estimation, Design and Analysis, Documentation, Plans and Profiles, Research and Data Collection"><g transform="translate(0,-45)"><path class="background" aria-hidden="true" d="M0,0h564v27h-564Z" pointer-events="none"/><g><g class="mark-group role-legend-entry"><g transform="translate(0,16)"><path class="background" aria-hidden="true" d="M0,0h0v0h0Z" pointer-events="none"/><g><g class="mark-group role-scope" role="graphics-object" aria-roledescription="group mark container"><g transform="translate(0,0)"><path class="background" aria-hidden="true" d="M0,0h86.0244140625v11h-86.0244140625Z" pointer-events="none" opacity="1"/><g><g class="mark-symbol role-legend-symbol" pointer-events="none"><path transform="translate(6,6)" d="M-5,-5h10v10h-10Z" fill="#4c78a8" stroke-width="1.5" opacity="1"/></g><g class="mark-text role-legend-label" pointer-events="none"><text text-anchor="start" transform="translate(16,9)" font-family="sans-serif" font-size="10px" fill="#000" opacity="1">Cost Estimation</text></g></g><path class="foreground" aria-hidden="true" d="" pointer-events="none" display="none"/></g><g transform="translate(97,0)"><path class="background" aria-hidden="true" d="M0,0h106.60546875v11h-106.60546875Z" pointer-events="none" opacity="1"/><g><g class="mark-symbol role-legend-symbol" pointer-events="none"><path transform="translate(6,6)" d="M-5,-5h10v10h-10Z" fill="#f58518" stroke-width="1.5" opacity="1"/></g><g class="mark-text role-legend-label" pointer-events="none"><text text-anchor="start" transform="translate(16,9)" font-family="sans-serif" font-size="10px" fill="#000" opacity="1">Design and Analysis</text></g></g><path class="foreground" aria-hidden="true" d="" pointer-events="none" display="none"/></g><g transform="translate(214,0)"><path class="background" aria-hidden="true" d="M0,0h83.2607421875v11h-83.2607421875Z" pointer-events="none" opacity="1"/><g><g class="mark-symbol role-legend-symbol" pointer-events="none"><path transform="translate(6,6)" d="M-5,-5h10v10h-10Z" fill="#e45756" stroke-width="1.5" opacity="1"/></g><g class="mark-text role-legend-label" pointer-events="none"><text text-anchor="start" transform="translate(16,9)" font-family="sans-serif" font-size="10px" fill="#000" opacity="1">Documentation</text></g></g><path class="foreground" aria-hidden="true" d="" pointer-events="none" display="none"/></g><g transform="translate(308,0)"><path class="background" aria-hidden="true" d="M0,0h96.6005859375v11h-96.6005859375Z" pointer-events="none" opacity="1"/><g><g class="mark-symbol role-legend-symbol" pointer-events="none"><path transform="translate(6,6)" d="M-5,-5h10v10h-10Z" fill="#72b7b2" stroke-width="1.5" opacity="1"/></g><g class="mark-text role-legend-label" pointer-events="none"><text text-anchor="start" transform="translate(16,9)" font-family="sans-serif" font-size="10px" fill="#000" opacity="1">Plans and Profiles</text></g></g><path class="foreground" aria-hidden="true" d="" pointer-events="none" display="none"/></g><g transform="translate(415,0)"><path class="background" aria-hidden="true" d="M0,0h148.8515625v11h-148.8515625Z" pointer-events="none" opacity="1"/><g><g class="mark-symbol role-legend-symbol" pointer-events="none"><path transform="translate(6,6)" d="M-5,-5h10v10h-10Z" fill="#54a24b" stroke-width="1.5" opacity="1"/></g><g class="mark-text role-legend-label" pointer-events="none"><text text-anchor="start" transform="translate(16,9)" font-family="sans-serif" font-size="10px" fill="#000" opacity="1">Research and Data Collection</text></g></g><path class="foreground" aria-hidden="true" d="" pointer-events="none" display="none"/></g></g></g><path class="foreground" aria-hidden="true" d="" pointer-events="none" display="none"/></g></g><g class="mark-text role-legend-title" pointer-events="none"><text text-anchor="start" transform="translate(0,9)" font-family="sans-serif" font-size="11px" font-weight="bold" fill="#000" opacity="1">Category</text></g></g><path class="foreground" aria-hidden="true" d="" pointer-events="none" display="none"/></g></g><g class="mark-group role-title"><g transform="translate(300,-62)"><path class="background" aria-hidden="true" d="M0,0h0v0h0Z" pointer-events="none"/><g><g class="mark-text role-title-text" role="graphics-symbol" aria-roledescription="title" aria-label="Title text 'Schedule'" pointer-events="none"><text text-anchor="middle" transform="translate(0,10)" font-family="sans-serif" font-size="13px" font-weight="bold" fill="#000" opacity="1">Schedule</text></g></g><path class="foreground" aria-hidden="true" d="" pointer-events="none" display="none"/></g></g></g><path class="foreground" aria-hidden="true" d="" display="none"/></g></g></g></svg>